<svg width="708" height="800" viewBox="0 0 708 800" fill="none" xmlns="http://www.w3.org/2000/svg">
<path d="M400 769.23H369.231V800H400V769.23Z" fill="black"/>
<path d="M369.231 769.23H338.462V800H369.231V769.23Z" fill="black"/>
<path d="M338.492 769.23H307.692V800H338.492V769.23Z" fill="black"/>
<path d="M461.539 738.461H430.769V769.23H461.539V738.461Z" fill="black"/>
<path d="M430.769 738.461H400L400 769.23L430.769 769.23V738.461Z" fill="black"/>
<path d="M400 738.461H369.231V769.23H400L400 738.461Z" fill="#4C2C5A"/>
<path d="M369.231 738.461H338.462V769.23H369.231V738.461Z" fill="#4C2C5A"/>
<path d="M338.492 738.461H307.692V769.23H338.492V738.461Z" fill="#4C2C5A"/>
<path d="M307.692 738.461H276.923V769.23L307.692 769.23V738.461Z" fill="black"/>
<path d="M276.923 738.461H246.154V769.23H276.923V738.461Z" fill="black"/>
<path d="M523.077 707.692H492.308V738.461H523.077V707.692Z" fill="black"/>
<path d="M492.308 707.692H461.538L461.539 738.461L492.308 738.461V707.692Z" fill="black"/>
<path d="M461.538 707.692H430.769V738.461H461.539L461.538 707.692Z" fill="#4C2C5A"/>
<path d="M430.769 707.692H400V738.461H430.769V707.692Z" fill="#4C2C5A"/>
<path d="M400 707.692H369.231V738.461H400V707.692Z" fill="#4C2C5A"/>
<path d="M369.231 707.692H338.462V738.461H369.231V707.692Z" fill="#9B51E0"/>
<path d="M338.492 707.692H307.692V738.461H338.492V707.692Z" fill="#9B51E0"/>
<path d="M307.692 707.692H276.923V738.461H307.692V707.692Z" fill="#4C2C5A"/>
<path d="M276.923 707.692H246.154V738.461H276.923V707.692Z" fill="#4C2C5A"/>
<path d="M246.154 707.692H215.385V738.461L246.154 738.461V707.692Z" fill="black"/>
<path d="M215.385 707.692H184.615V738.461H215.385V707.692Z" fill="black"/>
<path d="M584.615 676.923H553.846V707.692H584.615V676.923Z" fill="black"/>
<path d="M553.846 676.923H523.077L523.077 707.692L553.846 707.692V676.923Z" fill="black"/>
<path d="M523.077 676.923H492.308V707.692H523.077L523.077 676.923Z" fill="#4C2C5A"/>
<path d="M492.308 676.923H461.538V707.692H492.308V676.923Z" fill="#4C2C5A"/>
<path d="M461.538 676.923H430.769V707.692H461.538V676.923Z" fill="#4C2C5A"/>
<path d="M430.769 676.923H400V707.692H430.769V676.923Z" fill="#4C2C5A"/>
<path d="M400 676.923H369.231V707.692H400V676.923Z" fill="#9B51E0"/>
<path d="M369.231 676.923H338.462V707.692H369.231V676.923Z" fill="#9B51E0"/>
<path d="M338.492 676.923H307.692V707.692H338.492V676.923Z" fill="#9B51E0"/>
<path d="M307.692 676.923H276.923V707.692H307.692V676.923Z" fill="#9B51E0"/>
<path d="M276.923 676.923H246.154V707.692H276.923V676.923Z" fill="#9B51E0"/>
<path d="M246.154 676.923H215.385V707.692H246.154V676.923Z" fill="#4C2C5A"/>
<path d="M215.385 676.923H184.615V707.692H215.385V676.923Z" fill="#4C2C5A"/>
<path d="M184.615 676.923H153.846V707.692L184.615 707.692V676.923Z" fill="black"/>
<path d="M153.846 676.923H123.077V707.692H153.846V676.923Z" fill="black"/>
<path d="M646.154 646.154H615.385V676.923H646.154V646.154Z" fill="black"/>
<path d="M615.415 646.154H584.615L584.615 676.923L615.415 676.923V646.154Z" fill="black"/>
<path d="M584.615 646.154H553.846V676.923H584.615L584.615 646.154Z" fill="#4C2C5A"/>
<path d="M553.846 646.154H523.077V676.923H553.846V646.154Z" fill="#4C2C5A"/>
<path d="M523.077 646.154H492.308V676.923H523.077V646.154Z" fill="#4C2C5A"/>
<path d="M492.308 646.154H461.538V676.923H492.308V646.154Z" fill="#4C2C5A"/>
<path d="M461.538 646.154H430.769V676.923H461.538V646.154Z" fill="#9B51E0"/>
<path d="M430.769 646.154H400V676.923H430.769V646.154Z" fill="#9B51E0"/>
<path d="M400 646.154H369.231V676.923H400V646.154Z" fill="#9B51E0"/>
<path d="M369.231 646.154H338.462V676.923H369.231V646.154Z" fill="#9B51E0"/>
<path d="M338.492 646.154H307.692V676.923H338.492V646.154Z" fill="#9B51E0"/>
<path d="M307.692 646.154H276.923V676.923H307.692V646.154Z" fill="#9B51E0"/>
<path d="M276.923 646.154H246.154V676.923H276.923V646.154Z" fill="#9B51E0"/>
<path d="M246.154 646.154H215.385V676.923H246.154V646.154Z" fill="#9B51E0"/>
<path d="M215.385 646.154H184.615V676.923H215.385V646.154Z" fill="#9B51E0"/>
<path d="M184.615 646.154H153.846V676.923H184.615V646.154Z" fill="#4C2C5A"/>
<path d="M153.846 646.154H123.077V676.923H153.846V646.154Z" fill="#4C2C5A"/>
<path d="M123.077 646.154H92.3077V676.923L123.077 676.923V646.154Z" fill="black"/>
<path d="M92.3077 646.154H61.5385V676.923H92.3077V646.154Z" fill="black"/>
<path d="M676.923 615.354H646.154L646.154 646.154L676.923 646.154V615.354Z" fill="black"/>
<path d="M646.154 615.354H615.385V646.154H646.154L646.154 615.354Z" fill="#4C2C5A"/>
<path d="M615.415 615.354H584.615V646.154H615.415V615.354Z" fill="#4C2C5A"/>
<path d="M584.615 615.354H553.846V646.154H584.615V615.354Z" fill="#4C2C5A"/>
<path d="M553.846 615.354H523.077V646.154H553.846V615.354Z" fill="#4C2C5A"/>
<path d="M523.077 615.354H492.308V646.154H523.077V615.354Z" fill="white"/>
<path d="M492.308 615.354H461.538V646.154H492.308V615.354Z" fill="white"/>
<path d="M461.538 615.354H430.769V646.154H461.538V615.354Z" fill="#9B51E0"/>
<path d="M430.769 615.354H400V646.154H430.769V615.354Z" fill="#9B51E0"/>
<path d="M400 615.354H369.231V646.154H400V615.354Z" fill="#9B51E0"/>
<path d="M369.231 615.354H338.462V646.154H369.231V615.354Z" fill="#9B51E0"/>
<path d="M338.492 615.354H307.692V646.154H338.492V615.354Z" fill="#9B51E0"/>
<path d="M307.692 615.354H276.923V646.154H307.692V615.354Z" fill="#9B51E0"/>
<path d="M276.923 615.354H246.154V646.154H276.923V615.354Z" fill="#9B51E0"/>
<path d="M246.154 615.354H215.385V646.154H246.154V615.354Z" fill="#9B51E0"/>
<path d="M215.385 615.354H184.615V646.154H215.385V615.354Z" fill="#9B51E0"/>
<path d="M184.615 615.354H153.846V646.154H184.615V615.354Z" fill="#9B51E0"/>
<path d="M153.846 615.354H123.077V646.154H153.846V615.354Z" fill="#9B51E0"/>
<path d="M123.077 615.354H92.3077V646.154H123.077V615.354Z" fill="#4C2C5A"/>
<path d="M92.3077 615.354H61.5385V646.154H92.3077V615.354Z" fill="#4C2C5A"/>
<path d="M61.5693 615.354H30.7693V646.154H61.5693V615.354Z" fill="black"/>
<path d="M707.692 584.615H676.923V615.384H707.692V584.615Z" fill="black"/>
<path d="M676.923 584.615H646.154V615.384H676.923V584.615Z" fill="#4C2C5A"/>
<path d="M646.154 584.615H615.385V615.384H646.154V584.615Z" fill="#4C2C5A"/>
<path d="M615.415 584.615H584.615V615.384H615.415V584.615Z" fill="#4C2C5A"/>
<path d="M584.615 584.615H553.846V615.384H584.615V584.615Z" fill="#9B51E0"/>
<path d="M553.846 584.615H523.077V615.384H553.846V584.615Z" fill="#9B51E0"/>
<path d="M523.077 584.615H492.308V615.384H523.077V584.615Z" fill="white"/>
<path d="M492.308 584.615H461.538V615.384H492.308V584.615Z" fill="white"/>
<path d="M461.538 584.615H430.769V615.384H461.538V584.615Z" fill="white"/>
<path d="M430.769 584.615H400V615.384H430.769V584.615Z" fill="#9B51E0"/>
<path d="M400 584.615H369.231V615.384H400V584.615Z" fill="#9B51E0"/>
<path d="M369.231 584.615H338.462V615.384H369.231V584.615Z" fill="#9B51E0"/>
<path d="M338.492 584.615H307.692V615.384H338.492V584.615Z" fill="#9B51E0"/>
<path d="M307.692 584.615H276.923V615.384H307.692V584.615Z" fill="#9B51E0"/>
<path d="M276.923 584.615H246.154V615.384H276.923V584.615Z" fill="#9B51E0"/>
<path d="M246.154 584.615H215.385V615.384H246.154V584.615Z" fill="black"/>
<path d="M215.385 584.615H184.615V615.384H215.385V584.615Z" fill="#9B51E0"/>
<path d="M184.615 584.615H153.846V615.384H184.615V584.615Z" fill="#9B51E0"/>
<path d="M153.846 584.615H123.077V615.384H153.846V584.615Z" fill="#9B51E0"/>
<path d="M123.077 584.615H92.3077V615.384H123.077V584.615Z" fill="#9B51E0"/>
<path d="M92.3077 584.615H61.5385V615.384H92.3077V584.615Z" fill="#9B51E0"/>
<path d="M61.5693 584.615H30.7693V615.384H61.5693V584.615Z" fill="#4C2C5A"/>
<path d="M30.7693 584.615H0V615.384H30.7693V584.615Z" fill="black"/>
<path d="M707.692 553.846H676.923V584.615H707.692V553.846Z" fill="black"/>
<path d="M676.923 553.846H646.154V584.615H676.923V553.846Z" fill="#4C2C5A"/>
<path d="M646.154 553.846H615.385V584.615H646.154V553.846Z" fill="#4C2C5A"/>
<path d="M615.415 553.846H584.615V584.615H615.415V553.846Z" fill="white"/>
<path d="M584.615 553.846H553.846V584.615H584.615V553.846Z" fill="#9B51E0"/>
<path d="M553.846 553.846H523.077V584.615H553.846V553.846Z" fill="black"/>
<path d="M523.077 553.846H492.308V584.615H523.077V553.846Z" fill="#9B51E0"/>
<path d="M492.308 553.846H461.538V584.615H492.308V553.846Z" fill="white"/>
<path d="M461.538 553.846H430.769V584.615H461.538V553.846Z" fill="white"/>
<path d="M430.769 553.846H400V584.615H430.769V553.846Z" fill="white"/>
<path d="M400 553.846H369.231V584.615H400V553.846Z" fill="#9B51E0"/>
<path d="M369.231 553.846H338.462V584.615H369.231V553.846Z" fill="#9B51E0"/>
<path d="M338.492 553.846H307.692V584.615H338.492V553.846Z" fill="#9B51E0"/>
<path d="M307.692 553.846H276.923V584.615H307.692V553.846Z" fill="#9B51E0"/>
<path d="M276.923 553.846H246.154V584.615H276.923V553.846Z" fill="#9B51E0"/>
<path d="M246.154 553.846H215.385V584.615H246.154V553.846Z" fill="black"/>
<path d="M215.385 553.846H184.615V584.615H215.385V553.846Z" fill="#9B51E0"/>
<path d="M184.615 553.846H153.846V584.615H184.615V553.846Z" fill="#9B51E0"/>
<path d="M153.846 553.846H123.077V584.615H153.846V553.846Z" fill="#9B51E0"/>
<path d="M123.077 553.846H92.3077V584.615H123.077V553.846Z" fill="#9B51E0"/>
<path d="M92.3077 553.846H61.5385V584.615H92.3077V553.846Z" fill="#9B51E0"/>
<path d="M61.5693 553.846H30.7693V584.615H61.5693V553.846Z" fill="white"/>
<path d="M30.7693 553.846H0V584.615H30.7693V553.846Z" fill="black"/>
<path d="M707.692 523.077H676.923V553.846H707.692V523.077Z" fill="black"/>
<path d="M676.923 523.077H646.154V553.846H676.923V523.077Z" fill="#4C2C5A"/>
<path d="M646.154 523.077H615.385V553.846H646.154V523.077Z" fill="#4C2C5A"/>
<path d="M615.415 523.077H584.615V553.846H615.415V523.077Z" fill="white"/>
<path d="M584.615 523.077H553.846V553.846H584.615V523.077Z" fill="white"/>
<path d="M553.846 523.077H523.077V553.846H553.846V523.077Z" fill="black"/>
<path d="M523.077 523.077H492.308V553.846H523.077V523.077Z" fill="#9B51E0"/>
<path d="M492.308 523.077H461.538V553.846H492.308V523.077Z" fill="#9B51E0"/>
<path d="M461.538 523.077H430.769V553.846H461.538V523.077Z" fill="white"/>
<path d="M430.769 523.077H400V553.846H430.769V523.077Z" fill="white"/>
<path d="M400 523.077H369.231V553.846H400V523.077Z" fill="white"/>
<path d="M369.231 523.077H338.462V553.846H369.231V523.077Z" fill="#9B51E0"/>
<path d="M338.492 523.077H307.692V553.846H338.492V523.077Z" fill="#9B51E0"/>
<path d="M307.692 523.077H276.923V553.846H307.692V523.077Z" fill="#9B51E0"/>
<path d="M276.923 523.077H246.154V553.846H276.923V523.077Z" fill="#9B51E0"/>
<path d="M246.154 523.077H215.385V553.846H246.154V523.077Z" fill="black"/>
<path d="M215.385 523.077H184.615V553.846H215.385V523.077Z" fill="#9B51E0"/>
<path d="M184.615 523.077H153.846V553.846H184.615V523.077Z" fill="#9B51E0"/>
<path d="M153.846 523.077H123.077V553.846H153.846V523.077Z" fill="#9B51E0"/>
<path d="M123.077 523.077H92.3077V553.846H123.077V523.077Z" fill="#9B51E0"/>
<path d="M92.3077 523.077H61.5385V553.846H92.3077V523.077Z" fill="black"/>
<path d="M61.5693 523.077H30.7693V553.846H61.5693V523.077Z" fill="white"/>
<path d="M30.7693 523.077H0V553.846H30.7693V523.077Z" fill="black"/>
<path d="M707.692 492.308H676.923V523.077H707.692V492.308Z" fill="black"/>
<path d="M676.923 492.308H646.154V523.077H676.923V492.308Z" fill="#4C2C5A"/>
<path d="M646.154 492.308H615.385V523.077H646.154V492.308Z" fill="#4C2C5A"/>
<path d="M615.415 492.308H584.615V523.077H615.415V492.308Z" fill="#9B51E0"/>
<path d="M584.615 492.308H553.846V523.077H584.615V492.308Z" fill="white"/>
<path d="M553.846 492.308H523.077V523.077H553.846V492.308Z" fill="black"/>
<path d="M523.077 492.308H492.308V523.077H523.077V492.308Z" fill="#9B51E0"/>
<path d="M492.308 492.308H461.538V523.077H492.308V492.308Z" fill="#9B51E0"/>
<path d="M461.538 492.308H430.769V523.077H461.538V492.308Z" fill="#9B51E0"/>
<path d="M430.769 492.308H400V523.077H430.769V492.308Z" fill="white"/>
<path d="M400 492.308H369.231V523.077H400V492.308Z" fill="white"/>
<path d="M369.231 492.308H338.462V523.077H369.231V492.308Z" fill="white"/>
<path d="M338.492 492.308H307.692V523.077H338.492V492.308Z" fill="#9B51E0"/>
<path d="M307.692 492.308H276.923V523.077H307.692V492.308Z" fill="#9B51E0"/>
<path d="M276.923 492.308H246.154V523.077H276.923V492.308Z" fill="#9B51E0"/>
<path d="M246.154 492.308H215.385V523.077H246.154V492.308Z" fill="black"/>
<path d="M215.385 492.308H184.615V523.077H215.385V492.308Z" fill="#9B51E0"/>
<path d="M184.615 492.308H153.846V523.077H184.615V492.308Z" fill="#9B51E0"/>
<path d="M153.846 492.308H123.077V523.077H153.846V492.308Z" fill="#9B51E0"/>
<path d="M123.077 492.308H92.3077V523.077H123.077V492.308Z" fill="#9B51E0"/>
<path d="M92.3077 492.308H61.5385V523.077H92.3077V492.308Z" fill="black"/>
<path d="M61.5693 492.308H30.7693V523.077H61.5693V492.308Z" fill="white"/>
<path d="M30.7693 492.308H0V523.077H30.7693V492.308Z" fill="black"/>
<path d="M707.692 461.538H676.923V492.308H707.692V461.538Z" fill="black"/>
<path d="M676.923 461.538H646.154V492.308H676.923V461.538Z" fill="#4C2C5A"/>
<path d="M646.154 461.538H615.385V492.308H646.154V461.538Z" fill="#4C2C5A"/>
<path d="M615.415 461.538H584.615V492.308H615.415V461.538Z" fill="#9B51E0"/>
<path d="M584.615 461.538H553.846V492.308H584.615V461.538Z" fill="#9B51E0"/>
<path d="M553.846 461.538H523.077V492.308H553.846V461.538Z" fill="black"/>
<path d="M523.077 461.538H492.308V492.308H523.077V461.538Z" fill="white"/>
<path d="M492.308 461.538H461.538V492.308H492.308V461.538Z" fill="#9B51E0"/>
<path d="M461.538 461.538H430.769V492.308H461.538V461.538Z" fill="#9B51E0"/>
<path d="M430.769 461.538H400V492.308H430.769V461.538Z" fill="#9B51E0"/>
<path d="M400 461.538H369.231V492.308H400V461.538Z" fill="white"/>
<path d="M369.231 461.538H338.462V492.308H369.231V461.538Z" fill="white"/>
<path d="M338.492 461.538H307.692V492.308H338.492V461.538Z" fill="white"/>
<path d="M307.692 461.538H276.923V492.308H307.692V461.538Z" fill="#9B51E0"/>
<path d="M276.923 461.538H246.154V492.308H276.923V461.538Z" fill="#9B51E0"/>
<path d="M246.154 461.538H215.385V492.308H246.154V461.538Z" fill="black"/>
<path d="M215.385 461.538H184.615V492.308H215.385V461.538Z" fill="#9B51E0"/>
<path d="M184.615 461.538H153.846V492.308H184.615V461.538Z" fill="#9B51E0"/>
<path d="M153.846 461.538H123.077V492.308H153.846V461.538Z" fill="#9B51E0"/>
<path d="M123.077 461.538H92.3077V492.308H123.077V461.538Z" fill="#9B51E0"/>
<path d="M92.3077 461.538H61.5385V492.308H92.3077V461.538Z" fill="black"/>
<path d="M61.5693 461.538H30.7693V492.308H61.5693V461.538Z" fill="white"/>
<path d="M30.7693 461.538H0V492.308H30.7693V461.538Z" fill="black"/>
<path d="M707.692 430.769H676.923V461.538H707.692V430.769Z" fill="black"/>
<path d="M676.923 430.769H646.154V461.538H676.923V430.769Z" fill="#4C2C5A"/>
<path d="M646.154 430.769H615.385V461.538H646.154V430.769Z" fill="#4C2C5A"/>
<path d="M615.415 430.769H584.615V461.538H615.415V430.769Z" fill="#9B51E0"/>
<path d="M584.615 430.769H553.846V461.538H584.615V430.769Z" fill="#9B51E0"/>
<path d="M553.846 430.769H523.077V461.538H553.846V430.769Z" fill="black"/>
<path d="M523.077 430.769H492.308V461.538H523.077V430.769Z" fill="white"/>
<path d="M492.308 430.769H461.538V461.538H492.308V430.769Z" fill="white"/>
<path d="M461.538 430.769H430.769V461.538H461.538V430.769Z" fill="#9B51E0"/>
<path d="M430.769 430.769H400V461.538H430.769V430.769Z" fill="#9B51E0"/>
<path d="M400 430.769H369.231V461.538H400V430.769Z" fill="#9B51E0"/>
<path d="M369.231 430.769H338.462V461.538H369.231V430.769Z" fill="white"/>
<path d="M338.492 430.769H307.692V461.538H338.492V430.769Z" fill="white"/>
<path d="M307.692 430.769H276.923V461.538H307.692V430.769Z" fill="white"/>
<path d="M276.923 430.769H246.154V461.538H276.923V430.769Z" fill="#9B51E0"/>
<path d="M246.154 430.769H215.385V461.538H246.154V430.769Z" fill="black"/>
<path d="M215.385 430.769H184.615V461.538H215.385V430.769Z" fill="#9B51E0"/>
<path d="M184.615 430.769H153.846V461.538H184.615V430.769Z" fill="#9B51E0"/>
<path d="M153.846 430.769H123.077V461.538H153.846V430.769Z" fill="#9B51E0"/>
<path d="M123.077 430.769H92.3077V461.538H123.077V430.769Z" fill="#9B51E0"/>
<path d="M92.3077 430.769H61.5385V461.538H92.3077V430.769Z" fill="black"/>
<path d="M61.5693 430.769H30.7693V461.538H61.5693V430.769Z" fill="white"/>
<path d="M30.7693 430.769H0V461.538H30.7693V430.769Z" fill="black"/>
<path d="M707.692 400H676.923V430.769H707.692V400Z" fill="black"/>
<path d="M676.923 400H646.154V430.769H676.923V400Z" fill="#4C2C5A"/>
<path d="M646.154 400H615.385V430.769H646.154V400Z" fill="#4C2C5A"/>
<path d="M615.415 400H584.615V430.769H615.415V400Z" fill="#9B51E0"/>
<path d="M584.615 400H553.846V430.769H584.615V400Z" fill="#9B51E0"/>
<path d="M553.846 400H523.077V430.769H553.846V400Z" fill="black"/>
<path d="M523.077 400H492.308V430.769H523.077V400Z" fill="#9B51E0"/>
<path d="M492.308 400H461.538V430.769H492.308V400Z" fill="white"/>
<path d="M461.538 400H430.769V430.769H461.538V400Z" fill="white"/>
<path d="M430.769 400H400V430.769H430.769V400Z" fill="#9B51E0"/>
<path d="M400 400H369.231V430.769H400V400Z" fill="#9B51E0"/>
<path d="M369.231 400H338.462V430.769H369.231V400Z" fill="#9B51E0"/>
<path d="M338.492 400H307.692V430.769H338.492V400Z" fill="white"/>
<path d="M307.692 400H276.923V430.769H307.692V400Z" fill="white"/>
<path d="M276.923 400H246.154V430.769H276.923V400Z" fill="white"/>
<path d="M246.154 400H215.385V430.769H246.154V400Z" fill="black"/>
<path d="M215.385 400H184.615V430.769H215.385V400Z" fill="#9B51E0"/>
<path d="M184.615 400H153.846V430.769H184.615V400Z" fill="black"/>
<path d="M153.846 400H123.077V430.769H153.846V400Z" fill="#9B51E0"/>
<path d="M123.077 400H92.3077V430.769H123.077V400Z" fill="#9B51E0"/>
<path d="M92.3077 400H61.5385V430.769H92.3077V400Z" fill="black"/>
<path d="M61.5693 400H30.7693V430.769H61.5693V400Z" fill="white"/>
<path d="M30.7693 400H0V430.769H30.7693V400Z" fill="black"/>
<path d="M707.692 369.23H676.923V400H707.692V369.23Z" fill="black"/>
<path d="M676.923 369.23H646.154V400H676.923V369.23Z" fill="#4C2C5A"/>
<path d="M646.154 369.23H615.385V400H646.154V369.23Z" fill="#4C2C5A"/>
<path d="M615.415 369.23H584.615V400H615.415V369.23Z" fill="#9B51E0"/>
<path d="M584.615 369.23H553.846V400H584.615V369.23Z" fill="#9B51E0"/>
<path d="M553.846 369.23H523.077V400H553.846V369.23Z" fill="black"/>
<path d="M523.077 369.23H492.308V400H523.077V369.23Z" fill="#9B51E0"/>
<path d="M492.308 369.23H461.538V400H492.308V369.23Z" fill="#9B51E0"/>
<path d="M461.538 369.23H430.769V400H461.538V369.23Z" fill="white"/>
<path d="M430.769 369.23H400V400H430.769V369.23Z" fill="white"/>
<path d="M400 369.23H369.231V400H400V369.23Z" fill="black"/>
<path d="M369.231 369.23H338.462V400H369.231V369.23Z" fill="black"/>
<path d="M338.492 369.23H307.692V400H338.492V369.23Z" fill="black"/>
<path d="M307.692 369.23H276.923V400H307.692V369.23Z" fill="black"/>
<path d="M276.923 369.23H246.154V400H276.923V369.23Z" fill="black"/>
<path d="M246.154 369.23H215.385V400H246.154V369.23Z" fill="black"/>
<path d="M215.385 369.23H184.615V400H215.385V369.23Z" fill="#9B51E0"/>
<path d="M184.615 369.23H153.846V400H184.615V369.23Z" fill="black"/>
<path d="M153.846 369.23H123.077V400H153.846V369.23Z" fill="#9B51E0"/>
<path d="M123.077 369.23H92.3077V400H123.077V369.23Z" fill="#9B51E0"/>
<path d="M92.3077 369.23H61.5385V400H92.3077V369.23Z" fill="black"/>
<path d="M61.5693 369.23H30.7693V400H61.5693V369.23Z" fill="white"/>
<path d="M30.7693 369.23H0V400H30.7693V369.23Z" fill="black"/>
<path d="M707.692 338.431H676.923V369.23H707.692V338.431Z" fill="black"/>
<path d="M676.923 338.431H646.154V369.23H676.923V338.431Z" fill="#4C2C5A"/>
<path d="M646.154 338.431H615.385V369.23H646.154V338.431Z" fill="#4C2C5A"/>
<path d="M615.415 338.431H584.615V369.23H615.415V338.431Z" fill="#9B51E0"/>
<path d="M584.615 338.431H553.846V369.23H584.615V338.431Z" fill="#9B51E0"/>
<path d="M553.846 338.431H523.077V369.23H553.846V338.431Z" fill="black"/>
<path d="M523.077 338.431H492.308V369.23H523.077V338.431Z" fill="#9B51E0"/>
<path d="M492.308 338.431H461.538V369.23H492.308V338.431Z" fill="#9B51E0"/>
<path d="M461.538 338.431H430.769V369.23H461.538V338.431Z" fill="#9B51E0"/>
<path d="M430.769 338.431H400V369.23H430.769V338.431Z" fill="white"/>
<path d="M400 338.431H369.231V369.23H400V338.431Z" fill="white"/>
<path d="M369.231 338.431H338.462V369.23H369.231V338.431Z" fill="#9B51E0"/>
<path d="M338.492 338.431H307.692V369.23H338.492V338.431Z" fill="#9B51E0"/>
<path d="M307.692 338.431H276.923V369.23H307.692V338.431Z" fill="#9B51E0"/>
<path d="M276.923 338.431H246.154V369.23H276.923V338.431Z" fill="white"/>
<path d="M246.154 338.431H215.385V369.23H246.154V338.431Z" fill="black"/>
<path d="M215.385 338.431H184.615V369.23H215.385V338.431Z" fill="white"/>
<path d="M184.615 338.431H153.846V369.23H184.615V338.431Z" fill="black"/>
<path d="M153.846 338.431H123.077V369.23H153.846V338.431Z" fill="black"/>
<path d="M123.077 338.431H92.3077V369.23H123.077V338.431Z" fill="#9B51E0"/>
<path d="M92.3077 338.431H61.5385V369.23H92.3077V338.431Z" fill="black"/>
<path d="M61.5693 338.431H30.7693V369.23H61.5693V338.431Z" fill="white"/>
<path d="M30.7693 338.431H0V369.23H30.7693V338.431Z" fill="black"/>
<path d="M707.692 307.692H676.923V338.461H707.692V307.692Z" fill="black"/>
<path d="M676.923 307.692H646.154V338.461H676.923V307.692Z" fill="#4C2C5A"/>
<path d="M646.154 307.692H615.385V338.461H646.154V307.692Z" fill="#4C2C5A"/>
<path d="M615.415 307.692H584.615V338.461H615.415V307.692Z" fill="#9B51E0"/>
<path d="M584.615 307.692H553.846V338.461H584.615V307.692Z" fill="#9B51E0"/>
<path d="M553.846 307.692H523.077V338.461H553.846V307.692Z" fill="black"/>
<path d="M523.077 307.692H492.308V338.461H523.077V307.692Z" fill="#9B51E0"/>
<path d="M492.308 307.692H461.538V338.461H492.308V307.692Z" fill="#9B51E0"/>
<path d="M461.538 307.692H430.769V338.461H461.538V307.692Z" fill="#9B51E0"/>
<path d="M430.769 307.692H400V338.461H430.769V307.692Z" fill="#9B51E0"/>
<path d="M400 307.692H369.231V338.461H400V307.692Z" fill="white"/>
<path d="M369.231 307.692H338.462V338.461H369.231V307.692Z" fill="white"/>
<path d="M338.492 307.692H307.692V338.461H338.492V307.692Z" fill="#9B51E0"/>
<path d="M307.692 307.692H276.923V338.461H307.692V307.692Z" fill="#9B51E0"/>
<path d="M276.923 307.692H246.154V338.461H276.923V307.692Z" fill="#9B51E0"/>
<path d="M246.154 307.692H215.385V338.461H246.154V307.692Z" fill="black"/>
<path d="M215.385 307.692H184.615V338.461H215.385V307.692Z" fill="white"/>
<path d="M184.615 307.692H153.846V338.461H184.615V307.692Z" fill="black"/>
<path d="M153.846 307.692H123.077V338.461H153.846V307.692Z" fill="#9B51E0"/>
<path d="M123.077 307.692H92.3077V338.461H123.077V307.692Z" fill="black"/>
<path d="M92.3077 307.692H61.5385V338.461H92.3077V307.692Z" fill="black"/>
<path d="M61.5693 307.692H30.7693V338.461H61.5693V307.692Z" fill="white"/>
<path d="M30.7693 307.692H0V338.461H30.7693V307.692Z" fill="black"/>
<path d="M707.692 276.923H676.923V307.692H707.692V276.923Z" fill="black"/>
<path d="M676.923 276.923H646.154V307.692H676.923V276.923Z" fill="#4C2C5A"/>
<path d="M646.154 276.923H615.385V307.692H646.154V276.923Z" fill="#4C2C5A"/>
<path d="M615.415 276.923H584.615V307.692H615.415V276.923Z" fill="#9B51E0"/>
<path d="M584.615 276.923H553.846V307.692H584.615V276.923Z" fill="#9B51E0"/>
<path d="M553.846 276.923H523.077V307.692H553.846V276.923Z" fill="black"/>
<path d="M523.077 276.923H492.308V307.692H523.077V276.923Z" fill="#9B51E0"/>
<path d="M492.308 276.923H461.538V307.692H492.308V276.923Z" fill="#9B51E0"/>
<path d="M461.538 276.923H430.769V307.692H461.538V276.923Z" fill="#9B51E0"/>
<path d="M430.769 276.923H400V307.692H430.769V276.923Z" fill="#9B51E0"/>
<path d="M400 276.923H369.231V307.692H400V276.923Z" fill="#9B51E0"/>
<path d="M369.231 276.923H338.462V307.692H369.231V276.923Z" fill="white"/>
<path d="M338.492 276.923H307.692V307.692H338.492V276.923Z" fill="white"/>
<path d="M307.692 276.923H276.923V307.692H307.692V276.923Z" fill="#9B51E0"/>
<path d="M276.923 276.923H246.154V307.692H276.923V276.923Z" fill="#9B51E0"/>
<path d="M246.154 276.923H215.385V307.692H246.154V276.923Z" fill="black"/>
<path d="M215.385 276.923H184.615V307.692H215.385V276.923Z" fill="white"/>
<path d="M184.615 276.923H153.846V307.692H184.615V276.923Z" fill="black"/>
<path d="M153.846 276.923H123.077V307.692H153.846V276.923Z" fill="white"/>
<path d="M123.077 276.923H92.3077V307.692H123.077V276.923Z" fill="#9B51E0"/>
<path d="M92.3077 276.923H61.5385V307.692H92.3077V276.923Z" fill="black"/>
<path d="M61.5693 276.923H30.7693V307.692H61.5693V276.923Z" fill="white"/>
<path d="M30.7693 276.923H0V307.692H30.7693V276.923Z" fill="black"/>
<path d="M707.692 246.154H676.923V276.923H707.692V246.154Z" fill="black"/>
<path d="M676.923 246.154H646.154V276.923H676.923V246.154Z" fill="#4C2C5A"/>
<path d="M646.154 246.154H615.385V276.923H646.154V246.154Z" fill="#4C2C5A"/>
<path d="M615.415 246.154H584.615V276.923H615.415V246.154Z" fill="#9B51E0"/>
<path d="M584.615 246.154H553.846V276.923H584.615V246.154Z" fill="#9B51E0"/>
<path d="M553.846 246.154H523.077V276.923H553.846V246.154Z" fill="black"/>
<path d="M523.077 246.154H492.308V276.923H523.077V246.154Z" fill="#9B51E0"/>
<path d="M492.308 246.154H461.538V276.923H492.308V246.154Z" fill="#9B51E0"/>
<path d="M461.538 246.154H430.769V276.923H461.538V246.154Z" fill="#9B51E0"/>
<path d="M430.769 246.154H400V276.923H430.769V246.154Z" fill="#9B51E0"/>
<path d="M400 246.154H369.231V276.923H400V246.154Z" fill="#9B51E0"/>
<path d="M369.231 246.154H338.462V276.923H369.231V246.154Z" fill="#9B51E0"/>
<path d="M338.492 246.154H307.692V276.923H338.492V246.154Z" fill="white"/>
<path d="M307.692 246.154H276.923V276.923H307.692V246.154Z" fill="white"/>
<path d="M276.923 246.154H246.154V276.923H276.923V246.154Z" fill="#9B51E0"/>
<path d="M246.154 246.154H215.385V276.923H246.154V246.154Z" fill="black"/>
<path d="M215.385 246.154H184.615V276.923H215.385V246.154Z" fill="#9B51E0"/>
<path d="M184.615 246.154H153.846V276.923H184.615V246.154Z" fill="black"/>
<path d="M153.846 246.154H123.077V276.923H153.846V246.154Z" fill="white"/>
<path d="M123.077 246.154H92.3077V276.923H123.077V246.154Z" fill="white"/>
<path d="M92.3077 246.154H61.5385V276.923H92.3077V246.154Z" fill="black"/>
<path d="M61.5693 246.154H30.7693V276.923H61.5693V246.154Z" fill="white"/>
<path d="M30.7693 246.154H0V276.923H30.7693V246.154Z" fill="black"/>
<path d="M707.692 215.384H676.923V246.154H707.692V215.384Z" fill="black"/>
<path d="M676.923 215.384H646.154V246.154H676.923V215.384Z" fill="#4C2C5A"/>
<path d="M646.154 215.384H615.385V246.154H646.154V215.384Z" fill="black"/>
<path d="M615.415 215.384H584.615V246.154H615.415V215.384Z" fill="black"/>
<path d="M584.615 215.384H553.846V246.154H584.615V215.384Z" fill="#9B51E0"/>
<path d="M553.846 215.384H523.077V246.154H553.846V215.384Z" fill="black"/>
<path d="M523.077 215.384H492.308V246.154H523.077V215.384Z" fill="#9B51E0"/>
<path d="M492.308 215.384H461.538V246.154H492.308V215.384Z" fill="#9B51E0"/>
<path d="M461.538 215.384H430.769V246.154H461.538V215.384Z" fill="#9B51E0"/>
<path d="M430.769 215.384H400V246.154H430.769V215.384Z" fill="#9B51E0"/>
<path d="M400 215.384H369.231V246.154H400V215.384Z" fill="#9B51E0"/>
<path d="M369.231 215.384H338.462V246.154H369.231V215.384Z" fill="#9B51E0"/>
<path d="M338.492 215.384H307.692V246.154H338.492V215.384Z" fill="#9B51E0"/>
<path d="M307.692 215.384H276.923V246.154H307.692V215.384Z" fill="white"/>
<path d="M276.923 215.384H246.154V246.154H276.923V215.384Z" fill="white"/>
<path d="M246.154 215.384H215.385V246.154H246.154V215.384Z" fill="black"/>
<path d="M215.385 215.384H184.615V246.154H215.385V215.384Z" fill="#9B51E0"/>
<path d="M184.615 215.384H153.846V246.154H184.615V215.384Z" fill="black"/>
<path d="M153.846 215.384H123.077V246.154H153.846V215.384Z" fill="white"/>
<path d="M123.077 215.384H92.3077V246.154H123.077V215.384Z" fill="white"/>
<path d="M92.3077 215.384H61.5385V246.154H92.3077V215.384Z" fill="white"/>
<path d="M61.5693 215.384H30.7693V246.154H61.5693V215.384Z" fill="white"/>
<path d="M30.7693 215.384H0V246.154H30.7693V215.384Z" fill="black"/>
<path d="M707.692 184.615H676.923V215.384H707.692V184.615Z" fill="black"/>
<path d="M676.923 184.615H646.154V215.384H676.923V184.615Z" fill="#4C2C5A"/>
<path d="M646.154 184.615H615.385V215.384H646.154V184.615Z" fill="#4C2C5A"/>
<path d="M615.415 184.615H584.615V215.384H615.415V184.615Z" fill="#9B51E0"/>
<path d="M584.615 184.615H553.846V215.384H584.615V184.615Z" fill="black"/>
<path d="M553.846 184.615H523.077V215.384H553.846V184.615Z" fill="black"/>
<path d="M523.077 184.615H492.308V215.384H523.077V184.615Z" fill="#9B51E0"/>
<path d="M492.308 184.615H461.538V215.384H492.308V184.615Z" fill="#9B51E0"/>
<path d="M461.538 184.615H430.769V215.384H461.538V184.615Z" fill="#9B51E0"/>
<path d="M430.769 184.615H400V215.384H430.769V184.615Z" fill="#9B51E0"/>
<path d="M400 184.615H369.231V215.384H400V184.615Z" fill="#9B51E0"/>
<path d="M369.231 184.615H338.462V215.384H369.231V184.615Z" fill="#9B51E0"/>
<path d="M338.492 184.615H307.692V215.384H338.492V184.615Z" fill="#9B51E0"/>
<path d="M307.692 184.615H276.923V215.384H307.692V184.615Z" fill="#9B51E0"/>
<path d="M276.923 184.615H246.154V215.384H276.923V184.615Z" fill="white"/>
<path d="M246.154 184.615H215.385V215.384H246.154V184.615Z" fill="black"/>
<path d="M215.385 184.615H184.615V215.384H215.385V184.615Z" fill="#9B51E0"/>
<path d="M184.615 184.615H153.846V215.384H184.615V184.615Z" fill="black"/>
<path d="M153.846 184.615H123.077V215.384H153.846V184.615Z" fill="#9B51E0"/>
<path d="M123.077 184.615H92.3077V215.384H123.077V184.615Z" fill="white"/>
<path d="M92.3077 184.615H61.5385V215.384H92.3077V184.615Z" fill="white"/>
<path d="M61.5693 184.615H30.7693V215.384H61.5693V184.615Z" fill="white"/>
<path d="M30.7693 184.615H0V215.384H30.7693V184.615Z" fill="black"/>
<path d="M676.923 153.846H646.154V184.615H676.923L676.923 153.846Z" fill="black"/>
<path d="M646.154 153.846H615.385V184.615H646.154V153.846Z" fill="white"/>
<path d="M615.415 153.846H584.615V184.615H615.415V153.846Z" fill="white"/>
<path d="M584.615 153.846H553.846V184.615H584.615V153.846Z" fill="#9B51E0"/>
<path d="M553.846 153.846H523.077V184.615H553.846V153.846Z" fill="#9B51E0"/>
<path d="M523.077 153.846H492.308V184.615H523.077V153.846Z" fill="black"/>
<path d="M492.308 153.846H461.538V184.615H492.308V153.846Z" fill="black"/>
<path d="M461.538 153.846H430.769V184.615H461.538V153.846Z" fill="#9B51E0"/>
<path d="M430.769 153.846H400V184.615H430.769V153.846Z" fill="#9B51E0"/>
<path d="M400 153.846H369.231V184.615H400V153.846Z" fill="#9B51E0"/>
<path d="M369.231 153.846H338.462V184.615H369.231V153.846Z" fill="#9B51E0"/>
<path d="M338.492 153.846H307.692V184.615H338.492V153.846Z" fill="#9B51E0"/>
<path d="M307.692 153.846H276.923V184.615H307.692V153.846Z" fill="#9B51E0"/>
<path d="M276.923 153.846H246.154V184.615H276.923V153.846Z" fill="#9B51E0"/>
<path d="M246.154 153.846H215.385V184.615H246.154V153.846Z" fill="black"/>
<path d="M215.385 153.846H184.615V184.615H215.385V153.846Z" fill="white"/>
<path d="M184.615 153.846H153.846V184.615H184.615V153.846Z" fill="black"/>
<path d="M153.846 153.846H123.077V184.615H153.846V153.846Z" fill="#9B51E0"/>
<path d="M123.077 153.846H92.3077V184.615H123.077V153.846Z" fill="white"/>
<path d="M92.3077 153.846H61.5385V184.615H92.3077V153.846Z" fill="white"/>
<path d="M61.5693 153.846H30.7693V184.615H61.5693V153.846Z" fill="black"/>
<path d="M646.154 123.077H615.385V153.846H646.154L646.154 123.077Z" fill="black"/>
<path d="M615.415 123.077H584.615V153.846H615.415V123.077Z" fill="black"/>
<path d="M584.615 123.077H553.846V153.846H584.615V123.077Z" fill="white"/>
<path d="M553.846 123.077H523.077V153.846H553.846V123.077Z" fill="white"/>
<path d="M523.077 123.077H492.308V153.846H523.077V123.077Z" fill="#9B51E0"/>
<path d="M492.308 123.077H461.538V153.846H492.308V123.077Z" fill="#9B51E0"/>
<path d="M461.538 123.077H430.769V153.846H461.538V123.077Z" fill="black"/>
<path d="M430.769 123.077H400V153.846H430.769V123.077Z" fill="black"/>
<path d="M400 123.077H369.231V153.846H400V123.077Z" fill="#9B51E0"/>
<path d="M369.231 123.077H338.462V153.846H369.231V123.077Z" fill="#9B51E0"/>
<path d="M338.492 123.077H307.692V153.846H338.492V123.077Z" fill="#9B51E0"/>
<path d="M307.692 123.077H276.923V153.846H307.692V123.077Z" fill="black"/>
<path d="M276.923 123.077H246.154V153.846H276.923V123.077Z" fill="black"/>
<path d="M246.154 123.077H215.385V153.846H246.154V123.077Z" fill="#9B51E0"/>
<path d="M215.385 123.077H184.615V153.846H215.385V123.077Z" fill="white"/>
<path d="M184.615 123.077H153.846V153.846H184.615V123.077Z" fill="white"/>
<path d="M153.846 123.077H123.077V153.846H153.846V123.077Z" fill="white"/>
<path d="M123.077 123.077H92.3077V153.846H123.077V123.077Z" fill="black"/>
<path d="M92.3077 123.077H61.5385V153.846H92.3077V123.077Z" fill="black"/>
<path d="M584.615 92.3076H553.846V123.077H584.615L584.615 92.3076Z" fill="black"/>
<path d="M553.846 92.3076H523.077V123.077H553.846V92.3076Z" fill="black"/>
<path d="M523.077 92.3076H492.308V123.077H523.077V92.3076Z" fill="white"/>
<path d="M492.308 92.3076H461.538V123.077H492.308V92.3076Z" fill="white"/>
<path d="M461.538 92.3076H430.769V123.077H461.538V92.3076Z" fill="#9B51E0"/>
<path d="M430.769 92.3076H400V123.077H430.769V92.3076Z" fill="#9B51E0"/>
<path d="M400 92.3076H369.231V123.077H400V92.3076Z" fill="black"/>
<path d="M369.231 92.3076H338.462V123.077H369.231V92.3076Z" fill="black"/>
<path d="M338.492 92.3076H307.692V123.077H338.492V92.3076Z" fill="black"/>
<path d="M307.692 92.3076H276.923V123.077H307.692V92.3076Z" fill="#9B51E0"/>
<path d="M276.923 92.3076H246.154V123.077H276.923V92.3076Z" fill="#9B51E0"/>
<path d="M246.154 92.3076H215.385V123.077H246.154V92.3076Z" fill="white"/>
<path d="M215.385 92.3076H184.615V123.077H215.385V92.3076Z" fill="white"/>
<path d="M184.615 92.3076H153.846V123.077H184.615V92.3076Z" fill="black"/>
<path d="M153.846 92.3076H123.077V123.077H153.846V92.3076Z" fill="black"/>
<path d="M523.077 61.5078H492.308V92.3076H523.077L523.077 61.5078Z" fill="black"/>
<path d="M492.308 61.5078H461.538V92.3076H492.308V61.5078Z" fill="black"/>
<path d="M461.538 61.5078H430.769V92.3076H461.538V61.5078Z" fill="white"/>
<path d="M430.769 61.5078H400V92.3076H430.769V61.5078Z" fill="white"/>
<path d="M400 61.5078H369.231V92.3076H400V61.5078Z" fill="#9B51E0"/>
<path d="M369.231 61.5078H338.462V92.3076H369.231V61.5078Z" fill="#9B51E0"/>
<path d="M338.492 61.5078H307.692V92.3076H338.492V61.5078Z" fill="#9B51E0"/>
<path d="M307.692 61.5078H276.923V92.3076H307.692V61.5078Z" fill="white"/>
<path d="M276.923 61.5078H246.154V92.3076H276.923V61.5078Z" fill="white"/>
<path d="M246.154 61.5078H215.385V92.3076H246.154V61.5078Z" fill="black"/>
<path d="M215.385 61.5078H184.615V92.3076H215.385V61.5078Z" fill="black"/>
<path d="M461.539 30.769H430.769V61.5383H461.539V30.769Z" fill="black"/>
<path d="M430.769 30.769H400V61.5383H430.769V30.769Z" fill="black"/>
<path d="M400 30.769H369.231V61.5383H400V30.769Z" fill="white"/>
<path d="M369.231 30.769H338.462V61.5383H369.231V30.769Z" fill="white"/>
<path d="M338.492 30.769H307.692V61.5383H338.492V30.769Z" fill="white"/>
<path d="M307.692 30.769H276.923V61.5383H307.692V30.769Z" fill="black"/>
<path d="M276.923 30.769H246.154V61.5383H276.923V30.769Z" fill="black"/>
<path d="M400 0H369.231V30.769H400L400 0Z" fill="black"/>
<path d="M369.231 0H338.462V30.769H369.231V0Z" fill="black"/>
<path d="M338.492 0H307.692V30.769H338.492V0Z" fill="black"/>
</svg>
